<?xml version="1.0" encoding="utf-8"?>
<svg xmlns="http://www.w3.org/2000/svg" width="114" height="112" viewBox="0 0 114 112" fill="none">
<g clip-path="url(#clip0_784_675)">
<g clip-path="url(#clip1_784_675)">
<path d="M5.74901 33.3143C18.313 4.97422 51.5031 -7.88486 79.8814 4.59279V4.59279C108.26 17.0704 121.08 50.1598 108.516 78.4999V78.4999C95.9517 106.84 62.7615 119.699 34.3833 107.221V107.221C6.00509 94.7438 -6.81492 61.6545 5.74901 33.3143V33.3143Z" fill="#FFCE00"/>
<path d="M65.8603 30.2793L27.8665 39.9904C24.3325 40.895 21.2996 43.1608 19.4334 46.2905L-0.607794 79.9314C-2.47381 83.068 -3.01905 86.8121 -2.12404 90.3434L7.52561 128.218C8.42275 131.745 10.6858 134.769 13.8183 136.629L47.508 156.551C49.0607 157.47 50.7804 158.075 52.5688 158.33C54.3572 158.585 56.1792 158.486 57.9306 158.038L95.9061 148.342C97.6596 147.897 99.3085 147.111 100.758 146.029C102.208 144.946 103.429 143.59 104.353 142.037L124.394 108.396C126.26 105.262 126.804 101.521 125.906 97.9934L116.275 60.1036C115.836 58.3495 115.053 56.7001 113.972 55.2502C112.891 53.8002 111.533 52.5784 109.976 51.6548L76.2829 31.7665C73.1463 29.9118 69.3976 29.3769 65.8603 30.2793V30.2793Z" fill="#FF7300"/>
<path fill-rule="evenodd" clip-rule="evenodd" d="M67.1989 52.6887C67.9309 53.1417 68.1549 54.1016 67.6994 54.8328C66.7281 56.3921 65.3034 57.6192 63.6159 58.3501C61.9284 59.081 60.0585 59.2809 58.2563 58.9229C56.454 58.565 54.8054 57.6664 53.5309 56.3472C52.2565 55.028 51.4168 53.3512 51.1244 51.541C50.9872 50.692 51.566 49.8915 52.4171 49.7529C53.2682 49.6144 54.0693 50.1902 54.2065 51.0391C54.3978 52.2232 54.947 53.3201 55.7807 54.183C56.6144 55.046 57.6928 55.6338 58.8718 55.868C60.0507 56.1021 61.2738 55.9714 62.3777 55.4932C63.4816 55.0151 64.4135 54.2124 65.0489 53.1925C65.5044 52.4612 66.467 52.2357 67.1989 52.6887Z" fill="#141313"/>
<path fill-rule="evenodd" clip-rule="evenodd" d="M87.7154 56.754C88.4432 57.2136 88.6586 58.1755 88.1965 58.9026C87.2193 60.4404 85.799 61.6477 84.1224 62.3658C82.4458 63.0839 80.5916 63.2791 78.8039 62.9256C77.0162 62.5721 75.3788 61.6865 74.1072 60.3854C72.8357 59.0843 71.9896 57.4288 71.6804 55.6367C71.5342 54.7893 72.1044 53.9827 72.954 53.835C73.8036 53.6874 74.6109 54.2547 74.7571 55.1021C74.9594 56.2744 75.5128 57.3574 76.3446 58.2085C77.1763 59.0595 78.2474 59.6388 79.4168 59.8701C80.5862 60.1013 81.7991 59.9737 82.8959 59.5039C83.9926 59.0342 84.9217 58.2444 85.5609 57.2385C86.023 56.5114 86.9876 56.2945 87.7154 56.754Z" fill="#141313"/>
<path fill-rule="evenodd" clip-rule="evenodd" d="M101.588 65.5738C102.035 66.3084 101.8 67.2667 101.063 67.7141C90.5479 74.0952 78.023 76.3094 65.9678 73.9182C53.9126 71.527 43.2061 64.7048 35.9679 54.8022C35.4604 54.1079 35.614 53.1334 36.3109 52.6257C37.0077 52.1179 37.9841 52.2691 38.4916 52.9634C45.2692 62.2359 55.2945 68.624 66.5826 70.8631C77.8707 73.1021 89.5986 71.0288 99.4444 65.0537C100.182 64.6063 101.141 64.8392 101.588 65.5738Z" fill="#141313"/>
</g>
</g>
<defs>
<clipPath id="clip0_784_675">
<rect width="114" height="112" fill="white"/>
</clipPath>
<clipPath id="clip1_784_675">
<path d="M5.74901 33.3143C18.313 4.97422 51.5031 -7.88486 79.8814 4.59279V4.59279C108.26 17.0704 121.08 50.1598 108.516 78.4999V78.4999C95.9517 106.84 62.7615 119.699 34.3833 107.221V107.221C6.00509 94.7438 -6.81492 61.6545 5.74901 33.3143V33.3143Z" fill="white"/>
</clipPath>
</defs>
</svg>